<?xml version="1.0" encoding="UTF-8" standalone="no"?>
<!-- Created with Inkscape (http://www.inkscape.org/) -->

<svg
   xmlns:osb="http://www.openswatchbook.org/uri/2009/osb"
   xmlns:dc="http://purl.org/dc/elements/1.1/"
   xmlns:cc="http://creativecommons.org/ns#"
   xmlns:rdf="http://www.w3.org/1999/02/22-rdf-syntax-ns#"
   xmlns:svg="http://www.w3.org/2000/svg"
   xmlns="http://www.w3.org/2000/svg"
   xmlns:sodipodi="http://sodipodi.sourceforge.net/DTD/sodipodi-0.dtd"
   xmlns:inkscape="http://www.inkscape.org/namespaces/inkscape"
   width="140mm"
   height="153mm"
   viewBox="0 0 496.06279 542.12599"
   id="svg2"
   version="1.1"
   inkscape:version="0.91 r13725"
   sodipodi:docname="nmrstarlib_d.svg"
   inkscape:export-filename="/home/smelandr/nmrstarlib_logo.svg.png"
   inkscape:export-xdpi="90"
   inkscape:export-ydpi="90">
  <defs
     id="defs4">
    <linearGradient
       id="linearGradient5598"
       osb:paint="solid">
      <stop
         style="stop-color:#000000;stop-opacity:1;"
         offset="0"
         id="stop5600" />
    </linearGradient>
  </defs>
  <sodipodi:namedview
     id="base"
     pagecolor="#ffffff"
     bordercolor="#666666"
     borderopacity="1.0"
     inkscape:pageopacity="0.0"
     inkscape:pageshadow="2"
     inkscape:zoom="0.98994949"
     inkscape:cx="211.10307"
     inkscape:cy="288.17679"
     inkscape:document-units="px"
     inkscape:current-layer="layer1"
     showgrid="false"
     inkscape:window-width="1920"
     inkscape:window-height="989"
     inkscape:window-x="0"
     inkscape:window-y="0"
     inkscape:window-maximized="1" />
  <metadata
     id="metadata7">
    <rdf:RDF>
      <cc:Work
         rdf:about="">
        <dc:format>image/svg+xml</dc:format>
        <dc:type
           rdf:resource="http://purl.org/dc/dcmitype/StillImage" />
        <dc:title></dc:title>
      </cc:Work>
    </rdf:RDF>
  </metadata>
  <g
     inkscape:label="Layer 1"
     inkscape:groupmode="layer"
     id="layer1"
     transform="translate(0,-510.23622)">
    <path
       sodipodi:type="spiral"
       style="fill:none;fill-rule:evenodd;stroke:#000000;stroke-width:1.98146439;stroke-linecap:butt;stroke-linejoin:miter;stroke-miterlimit:4;stroke-dasharray:none;stroke-opacity:1"
       id="path3336"
       sodipodi:cx="389.43564"
       sodipodi:cy="462.91638"
       sodipodi:expansion="1"
       sodipodi:revolution="30"
       sodipodi:radius="243.84666"
       sodipodi:argument="-187.35063"
       sodipodi:t0="0.398"
       d="m 459.24881,530.33309 c -36.65305,38.98263 -99.78998,40.40797 -138.64145,3.85822 -39.77877,-37.42212 -41.22696,-101.86692 -3.9084,-141.51478 38.19117,-40.57492 103.94387,-42.04595 144.3881,-3.95857 41.37108,38.96021 42.86495,106.02082 4.00875,147.26142 -39.72926,42.16724 -108.09777,43.68395 -150.13474,4.05893 -42.9634,-40.4983 -44.50295,-110.17474 -4.10911,-153.00807 41.26734,-43.75957 112.2517,-45.32196 155.88139,-4.15928 44.55574,42.03637 46.14098,114.32866 4.20946,158.75471 -42.80539,45.35191 -116.40563,46.95999 -161.62803,4.25964 -46.14809,-43.57443 -47.77901,-118.48261 -4.30982,-164.50136 44.34345,-46.94427 120.55958,-48.59803 167.37468,-4.35999 47.74046,45.11246 49.41706,122.63655 4.41017,170.248 -45.88147,48.53664 -124.71353,50.23608 -173.12132,4.46035 -49.33283,-46.65049 -51.05512,-126.79052 -4.51053,-175.99465 47.4195,-50.12902 128.86751,-51.87415 178.86797,-4.5607 50.92521,48.1885 52.69319,130.94449 4.61088,181.74129 -48.95751,51.7214 -133.02148,53.51222 -184.61461,4.66106 -52.5176,-49.72652 -54.33126,-135.09848 -4.71124,-187.48794 50.49552,-53.3138 137.17547,-55.1503 190.36126,-4.76141 54.11,51.26451 55.96935,139.25246 4.81159,193.23458 -52.0335,54.9062 -141.32946,56.78839 -196.1079,4.86177 -55.70241,-52.8025 -57.60744,-143.40647 -4.91194,-198.98123 53.57149,-56.49861 145.48346,-58.42649 201.85454,-4.96212 57.29482,54.34048 59.24554,147.56047 5.0123,204.72787 -55.10947,58.09103 -149.63747,60.06459 -207.60119,5.06247 -58.88724,-55.87845 -60.88364,-151.71448 -5.11265,-210.47451 56.64744,-59.68345 153.79148,-61.7027 213.34783,-5.16283 60.47967,57.41643 62.52176,155.8685 5.21301,216.22116 -58.18541,61.27588 -157.94551,63.34081 -219.09448,5.26318 -62.0721,-58.95439 -64.15987,-160.02251 -5.31336,-221.9678 59.72337,-62.86831 162.09953,-64.97893 224.84112,-5.36354 63.66453,60.49235 65.79799,164.17655 5.41372,227.71445 -61.26132,64.46075 -166.25356,66.61705 -230.58777,5.46389 -65.25697,-62.0303 -67.43612,-168.33057 -5.51407,-233.46109 62.79927,-66.05319 170.40759,-68.25518 236.33441,-5.56425 66.84942,63.56825 69.07425,172.48461 5.61443,239.20774 -64.33722,67.64564 -174.56163,69.89331 -242.08106,5.6646 -68.44186,-65.10619 -70.71238,-176.63865 -5.71478,-244.95438 65.87516,-69.23809 178.71567,-71.53145 247.8277,-5.76496 70.03432,66.64413 72.35052,180.7927 5.81514,250.70103 -67.4131,70.83054 -182.86972,73.16959 -253.57435,5.86531 -71.62677,-68.18207 -73.98866,-184.94674 -5.91549,-256.44767 68.95104,-72.423 187.02376,-74.80773 259.32099,-5.96567 73.21923,69.72 75.62681,189.10079 6.01585,262.19432 -70.48897,74.01546 -191.17782,76.44588 -265.06764,6.06602 -74.81169,-71.25793 -77.26495,-193.25484 -6.1162,-267.94096 72.0269,-75.60792 195.33187,-78.08403 270.81428,-6.16638 76.40415,72.79586 78.9031,197.4089 6.21656,273.68761 -73.56482,77.20038 -199.48593,79.72218 -276.56093,6.26673 -77.99662,-74.33378 -80.54125,-201.56296 -6.31691,-279.43425 75.10274,-78.79285 203.63999,-81.36033 282.30757,-6.36709 79.58909,75.87171 82.17941,205.71702 6.41727,285.1809 -76.64067,80.38532 -207.79405,82.99849 -288.05422,6.46744 -81.18156,-77.40962 -83.81757,-209.87108 -6.51762,-290.92754 78.17858,-81.97779 211.94811,-84.63665 293.80086,-6.5678 82.77403,78.94754 85.45573,214.02515 6.61798,296.67419 -79.7165,83.57026 -216.10218,86.2748 -299.54751,6.66815 -84.3665,-80.48546 -87.09389,-218.17921 -6.71833,-302.42083 81.25441,-85.16274 220.25625,-87.91297 305.29415,-6.76851 85.95898,82.02337 88.73205,222.33329 6.81869,308.16748 -82.79233,86.75522 -224.41032,89.55113 -311.0408,6.86886 -87.55146,-83.56128 -90.37022,-226.48735 -6.91904,-313.91412 84.33023,-88.3477 228.56439,-91.1893 316.78744,-6.96922 89.14394,85.09919 92.00839,230.64143 7.0194,319.66077 -85.86814,89.94018 -232.71847,92.82747 -322.53409,7.06957 -90.73642,-86.63709 -93.64655,-234.7955 -7.11975,-325.40741 87.40605,-91.53266 236.87254,-94.46564 328.28073,-7.16993 92.3289,88.175 95.28472,238.94958 7.22011,331.15406 -88.94396,93.12514 -241.02662,96.10381 -334.02738,7.27028 -93.92139,-89.7129 -96.92289,-243.10365 -7.32046,-336.9007 90.48186,-94.71763 245.18069,-97.74198 339.77402,-7.37064 95.51388,91.25081 98.56107,247.25774 7.42082,342.64735 -21.15859,22.14509 -46.49854,40.21588 -74.32315,53.01639"
       transform="matrix(0.99999951,0,0,1.018797,-143.1318,289.87809)" />
    <path
       sodipodi:type="star"
       style="fill:#000000;fill-opacity:1;fill-rule:nonzero;stroke:none;stroke-width:0;stroke-miterlimit:4;stroke-dasharray:none;stroke-opacity:1"
       id="path5632"
       sodipodi:sides="8"
       sodipodi:cx="247.60979"
       sodipodi:cy="758.60009"
       sodipodi:r1="100"
       sodipodi:r2="29.999996"
       sodipodi:arg1="0.78539816"
       sodipodi:arg2="1.1780972"
       inkscape:flatsided="false"
       inkscape:rounded="0"
       inkscape:randomized="0"
       d="m 318.32047,829.31078 -59.23018,-42.9943 -11.4805,72.28362 -11.4805,-72.28362 -59.23018,42.9943 42.9943,-59.23018 -72.28362,-11.4805 72.28361,-11.4805 -42.99429,-59.23018 59.23017,42.9943 11.48051,-72.28362 11.4805,72.28361 59.23017,-42.99429 -42.99429,59.23017 72.28362,11.48051 -72.28362,11.4805 z" />
    <text
       xml:space="preserve"
       style="font-style:normal;font-weight:normal;font-size:40px;line-height:125%;font-family:sans-serif;letter-spacing:0px;word-spacing:0px;fill:#000000;fill-opacity:1;stroke:none;stroke-width:1px;stroke-linecap:butt;stroke-linejoin:miter;stroke-opacity:1"
       x="46.939133"
       y="1048.9612"
       id="text5749"
       sodipodi:linespacing="125%"><tspan
         sodipodi:role="line"
         id="tspan5751"
         x="46.939133"
         y="1048.9612"
         style="font-style:normal;font-variant:normal;font-weight:normal;font-stretch:normal;font-size:62.5px;font-family:Dreamland;-inkscape-font-specification:Dreamland">nmrstarlib</tspan></text>
  </g>
</svg>
