<?xml version="1.0" encoding="utf-8"?>
<!-- Generator: Adobe Illustrator 16.0.4, SVG Export Plug-In . SVG Version: 6.00 Build 0)  -->
<!DOCTYPE svg PUBLIC "-//W3C//DTD SVG 1.1//EN" "http://www.w3.org/Graphics/SVG/1.1/DTD/svg11.dtd">
<svg version="1.1" id="Layer_1" xmlns="http://www.w3.org/2000/svg" xmlns:xlink="http://www.w3.org/1999/xlink" x="0px" y="0px"
	 width="262px" height="22px" viewBox="128.5 22.5 262 22" enable-background="new 128.5 22.5 262 22" xml:space="preserve">
<linearGradient id="minus-symbol-mini_1_" gradientUnits="userSpaceOnUse" x1="1186.8037" y1="1499.7754" x2="1189.3864" y2="1515.3639" gradientTransform="matrix(1 0 0 1 -1029 -1473)">
	<stop  offset="0" style="stop-color:#808080"/>
	<stop  offset="1" style="stop-color:#1A1A1A"/>
</linearGradient>
<rect id="minus-symbol-mini" x="152.5" y="32.5" fill="url(#minus-symbol-mini_1_)" width="13" height="3"/>
<linearGradient id="plus-symbol-mini_1_" gradientUnits="userSpaceOnUse" x1="1167.0938" y1="1500.0332" x2="1168.8092" y2="1513.2153" gradientTransform="matrix(1 0 0 1 -1029 -1473)">
	<stop  offset="0" style="stop-color:#808080"/>
	<stop  offset="1" style="stop-color:#1A1A1A"/>
</linearGradient>
<polygon id="plus-symbol-mini" fill="url(#plus-symbol-mini_1_)" points="145.5,32.557 140.443,32.557 140.443,27.5 137.557,27.5 
	137.557,32.557 132.5,32.557 132.5,35.443 137.557,35.443 137.557,40.5 140.443,40.5 140.443,35.443 145.5,35.443 "/>
<g id="document-download-mini">
	
		<linearGradient id="SVGID_1_" gradientUnits="userSpaceOnUse" x1="970.5752" y1="-1147.2568" x2="974.338" y2="-1168.5969" gradientTransform="matrix(1 0 0 -1 -787 -1125)">
		<stop  offset="0" style="stop-color:#808080"/>
		<stop  offset="1" style="stop-color:#1A1A1A"/>
	</linearGradient>
	<polygon fill="url(#SVGID_1_)" points="186.5,27.5 182.5,27.5 182.5,23.5 	"/>
	
		<linearGradient id="SVGID_2_" gradientUnits="userSpaceOnUse" x1="963.2119" y1="-1148.0186" x2="966.9478" y2="-1169.2053" gradientTransform="matrix(1 0 0 -1 -787 -1125)">
		<stop  offset="0" style="stop-color:#808080"/>
		<stop  offset="1" style="stop-color:#1A1A1A"/>
	</linearGradient>
	<polygon fill="url(#SVGID_2_)" points="185.5,28.5 185.5,42.5 171.5,42.5 171.5,24.5 181.5,24.5 181.5,23.5 170.5,23.5 170.5,43.5 
		186.5,43.5 186.5,28.5 	"/>
	
		<linearGradient id="SVGID_3_" gradientUnits="userSpaceOnUse" x1="963.6748" y1="-1148.1562" x2="967.315" y2="-1168.8015" gradientTransform="matrix(1 0 0 -1 -787 -1125)">
		<stop  offset="0" style="stop-color:#808080"/>
		<stop  offset="1" style="stop-color:#1A1A1A"/>
	</linearGradient>
	<polygon fill="url(#SVGID_3_)" points="178.5,39.5 183.5,33.5 180.5,33.5 180.5,29.5 176.5,29.5 176.5,33.5 173.5,33.5 	"/>
</g>
<g id="document-upload-mini">
	
		<linearGradient id="SVGID_4_" gradientUnits="userSpaceOnUse" x1="1231.8633" y1="1493.7871" x2="1236.8643" y2="1514.2913" gradientTransform="matrix(1 0 0 1 -1029 -1473)">
		<stop  offset="0" style="stop-color:#808080"/>
		<stop  offset="1" style="stop-color:#1A1A1A"/>
	</linearGradient>
	<polygon fill="url(#SVGID_4_)" points="206.5,27.5 202.5,27.5 202.5,23.5 	"/>
	
		<linearGradient id="SVGID_5_" gradientUnits="userSpaceOnUse" x1="1224.2441" y1="1495.6484" x2="1229.244" y2="1516.1484" gradientTransform="matrix(1 0 0 1 -1029 -1473)">
		<stop  offset="0" style="stop-color:#808080"/>
		<stop  offset="1" style="stop-color:#1A1A1A"/>
	</linearGradient>
	<polygon fill="url(#SVGID_5_)" points="205.5,28.5 205.5,42.5 191.5,42.5 191.5,24.5 201.5,24.5 201.5,23.5 190.5,23.5 190.5,43.5 
		206.5,43.5 206.5,28.5 	"/>
	
		<linearGradient id="SVGID_6_" gradientUnits="userSpaceOnUse" x1="1224.3594" y1="1495.6182" x2="1229.3594" y2="1516.1182" gradientTransform="matrix(1 0 0 1 -1029 -1473)">
		<stop  offset="0" style="stop-color:#808080"/>
		<stop  offset="1" style="stop-color:#1A1A1A"/>
	</linearGradient>
	<polygon fill="url(#SVGID_6_)" points="198.501,29.5 193.501,35.5 196.501,35.5 196.501,39.5 200.501,39.5 200.501,35.5 
		203.501,35.5 	"/>
</g>
<g>
	
		<linearGradient id="SVGID_7_" gradientUnits="userSpaceOnUse" x1="1239.4824" y1="1496.2969" x2="1243.8568" y2="1518.4185" gradientTransform="matrix(1 0 0 1 -1029 -1473)">
		<stop  offset="0" style="stop-color:#808080"/>
		<stop  offset="1" style="stop-color:#1A1A1A"/>
	</linearGradient>
	<rect x="210.5" y="27.5" fill="url(#SVGID_7_)" width="4" height="12"/>
	
		<linearGradient id="SVGID_8_" gradientUnits="userSpaceOnUse" x1="1247.1807" y1="1494.7705" x2="1251.5563" y2="1516.8987" gradientTransform="matrix(1 0 0 1 -1029 -1473)">
		<stop  offset="0" style="stop-color:#808080"/>
		<stop  offset="1" style="stop-color:#1A1A1A"/>
	</linearGradient>
	<polygon fill="url(#SVGID_8_)" points="222.25,27.5 221.5,27.5 215.5,27.5 215.5,39.5 221.5,39.5 222.25,39.5 225.5,39.5 
		225.5,27.5 	"/>
	
		<linearGradient id="SVGID_9_" gradientUnits="userSpaceOnUse" x1="1244.7754" y1="1495.248" x2="1249.1498" y2="1517.3707" gradientTransform="matrix(1 0 0 1 -1029 -1473)">
		<stop  offset="0" style="stop-color:#808080"/>
		<stop  offset="1" style="stop-color:#1A1A1A"/>
	</linearGradient>
	<path fill="url(#SVGID_9_)" d="M208.5,25.5v16h19v-16H208.5z M226.5,40.5h-17v-14h17V40.5z"/>
</g>
<g id="chat-mini">
	
		<linearGradient id="SVGID_10_" gradientUnits="userSpaceOnUse" x1="555.8281" y1="-384.5244" x2="559.2965" y2="-404.1943" gradientTransform="matrix(1 0 0 -1 -303 -360)">
		<stop  offset="0" style="stop-color:#808080"/>
		<stop  offset="1" style="stop-color:#1A1A1A"/>
	</linearGradient>
	<polygon fill="url(#SVGID_10_)" points="248.5,29.5 248.5,38.5 252.5,38.5 252.5,42.5 256.5,38.5 260.5,38.5 260.5,29.5 	"/>
	
		<linearGradient id="SVGID_11_" gradientUnits="userSpaceOnUse" x1="564.6143" y1="-381.9746" x2="567.9724" y2="-401.0195" gradientTransform="matrix(1 0 0 -1 -303 -360)">
		<stop  offset="0" style="stop-color:#808080"/>
		<stop  offset="1" style="stop-color:#1A1A1A"/>
	</linearGradient>
	<polygon fill="url(#SVGID_11_)" points="256.5,25.5 256.5,28.5 261.5,28.5 261.5,35.5 264.5,38.5 264.5,34.5 268.5,34.5 
		268.5,25.5 	"/>
</g>
<g id="document-multiple-mini">
	<g>
		
			<linearGradient id="SVGID_12_" gradientUnits="userSpaceOnUse" x1="604.3711" y1="-381.0312" x2="610.7482" y2="-404.7894" gradientTransform="matrix(1 0 0 -1 -303 -360)">
			<stop  offset="0" style="stop-color:#808080"/>
			<stop  offset="1" style="stop-color:#1A1A1A"/>
		</linearGradient>
		<polygon fill="url(#SVGID_12_)" points="308.5,40.5 305.5,40.5 305.5,43.5 		"/>
		<g>
			
				<linearGradient id="SVGID_13_" gradientUnits="userSpaceOnUse" x1="601.3359" y1="-381.8555" x2="607.7106" y2="-405.6042" gradientTransform="matrix(1 0 0 -1 -303 -360)">
				<stop  offset="0" style="stop-color:#808080"/>
				<stop  offset="1" style="stop-color:#1A1A1A"/>
			</linearGradient>
			<polygon fill="url(#SVGID_13_)" points="307.5,39.5 307.5,28.5 296.5,28.5 296.5,42.5 304.5,42.5 304.5,43.5 295.5,43.5 
				295.5,27.5 308.5,27.5 308.5,39.5 			"/>
		</g>
	</g>
	
		<linearGradient id="SVGID_14_" gradientUnits="userSpaceOnUse" x1="599.9717" y1="-382.2212" x2="606.3467" y2="-405.9712" gradientTransform="matrix(1 0 0 -1 -303 -360)">
		<stop  offset="0" style="stop-color:#808080"/>
		<stop  offset="1" style="stop-color:#1A1A1A"/>
	</linearGradient>
	<polygon fill="url(#SVGID_14_)" points="306.5,25.5 293.5,25.5 293.5,41.5 294.5,41.5 294.5,26.5 306.5,26.5 	"/>
	
		<linearGradient id="SVGID_15_" gradientUnits="userSpaceOnUse" x1="598.6074" y1="-382.5874" x2="604.982" y2="-406.3359" gradientTransform="matrix(1 0 0 -1 -303 -360)">
		<stop  offset="0" style="stop-color:#808080"/>
		<stop  offset="1" style="stop-color:#1A1A1A"/>
	</linearGradient>
	<polygon fill="url(#SVGID_15_)" points="304.5,24.5 304.5,23.5 291.5,23.5 291.5,39.5 292.5,39.5 292.5,24.5 	"/>
</g>
<g id="text-list-small-mini">
	
		<linearGradient id="SVGID_16_" gradientUnits="userSpaceOnUse" x1="633.1689" y1="-382.8174" x2="641.5471" y2="-406.8266" gradientTransform="matrix(1 0 0 -1 -303 -360)">
		<stop  offset="0" style="stop-color:#808080"/>
		<stop  offset="1" style="stop-color:#1A1A1A"/>
	</linearGradient>
	<rect x="331.5" y="28.5" fill="url(#SVGID_16_)" width="2" height="2"/>
	
		<linearGradient id="SVGID_17_" gradientUnits="userSpaceOnUse" x1="631.9248" y1="-383.2539" x2="640.2998" y2="-407.2539" gradientTransform="matrix(1 0 0 -1 -303 -360)">
		<stop  offset="0" style="stop-color:#808080"/>
		<stop  offset="1" style="stop-color:#1A1A1A"/>
	</linearGradient>
	<rect x="331.5" y="32.5" fill="url(#SVGID_17_)" width="2" height="2"/>
	
		<linearGradient id="SVGID_18_" gradientUnits="userSpaceOnUse" x1="630.6807" y1="-383.689" x2="639.0557" y2="-407.689" gradientTransform="matrix(1 0 0 -1 -303 -360)">
		<stop  offset="0" style="stop-color:#808080"/>
		<stop  offset="1" style="stop-color:#1A1A1A"/>
	</linearGradient>
	<rect x="331.5" y="36.5" fill="url(#SVGID_18_)" width="2" height="2"/>
	
		<linearGradient id="SVGID_19_" gradientUnits="userSpaceOnUse" x1="642.083" y1="-379.708" x2="650.4593" y2="-403.7116" gradientTransform="matrix(1 0 0 -1 -303 -360)">
		<stop  offset="0" style="stop-color:#808080"/>
		<stop  offset="1" style="stop-color:#1A1A1A"/>
	</linearGradient>
	<rect x="335.5" y="28.5" fill="url(#SVGID_19_)" width="14" height="2"/>
	
		<linearGradient id="SVGID_20_" gradientUnits="userSpaceOnUse" x1="640.8389" y1="-380.1426" x2="649.2139" y2="-404.1426" gradientTransform="matrix(1 0 0 -1 -303 -360)">
		<stop  offset="0" style="stop-color:#808080"/>
		<stop  offset="1" style="stop-color:#1A1A1A"/>
	</linearGradient>
	<rect x="335.5" y="32.5" fill="url(#SVGID_20_)" width="14" height="2"/>
	
		<linearGradient id="SVGID_21_" gradientUnits="userSpaceOnUse" x1="639.5938" y1="-380.5732" x2="647.97" y2="-404.5768" gradientTransform="matrix(1 0 0 -1 -303 -360)">
		<stop  offset="0" style="stop-color:#808080"/>
		<stop  offset="1" style="stop-color:#1A1A1A"/>
	</linearGradient>
	<rect x="335.5" y="36.5" fill="url(#SVGID_21_)" width="14" height="2"/>
</g>
<g id="chat-mini_1_">
	
		<linearGradient id="SVGID_22_" gradientUnits="userSpaceOnUse" x1="576.0117" y1="-381.8267" x2="580.6364" y2="-404.45" gradientTransform="matrix(1 0 0 -1 -303 -360)">
		<stop  offset="0" style="stop-color:#236074"/>
		<stop  offset="1" style="stop-color:#132F48"/>
	</linearGradient>
	<polygon fill="url(#SVGID_22_)" points="269.5,29.5 269.5,38.5 273.5,38.5 273.5,42.5 277.5,38.5 281.5,38.5 281.5,29.5 	"/>
	
		<linearGradient id="SVGID_23_" gradientUnits="userSpaceOnUse" x1="585.0645" y1="-379.9766" x2="589.689" y2="-402.6" gradientTransform="matrix(1 0 0 -1 -303 -360)">
		<stop  offset="0" style="stop-color:#236074"/>
		<stop  offset="1" style="stop-color:#132F48"/>
	</linearGradient>
	<polygon fill="url(#SVGID_23_)" points="277.5,25.5 277.5,28.5 282.5,28.5 282.5,35.5 285.5,38.5 285.5,34.5 289.5,34.5 
		289.5,25.5 	"/>
</g>
<g id="document-multiple-mini_1_">
	<g>
		
			<linearGradient id="SVGID_24_" gradientUnits="userSpaceOnUse" x1="624.374" y1="-381.0391" x2="630.749" y2="-404.7891" gradientTransform="matrix(1 0 0 -1 -303 -360)">
			<stop  offset="0" style="stop-color:#236074"/>
			<stop  offset="1" style="stop-color:#132F48"/>
		</linearGradient>
		<polygon fill="url(#SVGID_24_)" points="328.5,40.5 325.5,40.5 325.5,43.5 		"/>
		<g>
			
				<linearGradient id="SVGID_25_" gradientUnits="userSpaceOnUse" x1="621.3369" y1="-381.8535" x2="627.712" y2="-405.6035" gradientTransform="matrix(1 0 0 -1 -303 -360)">
				<stop  offset="0" style="stop-color:#236074"/>
				<stop  offset="1" style="stop-color:#132F48"/>
			</linearGradient>
			<polygon fill="url(#SVGID_25_)" points="327.5,39.5 327.5,28.5 316.5,28.5 316.5,42.5 324.5,42.5 324.5,43.5 315.5,43.5 
				315.5,27.5 328.5,27.5 328.5,39.5 			"/>
		</g>
	</g>
	
		<linearGradient id="SVGID_26_" gradientUnits="userSpaceOnUse" x1="619.9727" y1="-382.2207" x2="626.3477" y2="-405.9707" gradientTransform="matrix(1 0 0 -1 -303 -360)">
		<stop  offset="0" style="stop-color:#236074"/>
		<stop  offset="1" style="stop-color:#132F48"/>
	</linearGradient>
	<polygon fill="url(#SVGID_26_)" points="326.5,25.5 313.5,25.5 313.5,41.5 314.5,41.5 314.5,26.5 326.5,26.5 	"/>
	
		<linearGradient id="SVGID_27_" gradientUnits="userSpaceOnUse" x1="618.6074" y1="-382.5869" x2="624.9828" y2="-406.3384" gradientTransform="matrix(1 0 0 -1 -303 -360)">
		<stop  offset="0" style="stop-color:#236074"/>
		<stop  offset="1" style="stop-color:#132F48"/>
	</linearGradient>
	<polygon fill="url(#SVGID_27_)" points="324.5,24.5 324.5,23.5 311.5,23.5 311.5,39.5 312.5,39.5 312.5,24.5 	"/>
</g>
<g id="text-list-small-mini_1_">
	
		<linearGradient id="SVGID_28_" gradientUnits="userSpaceOnUse" x1="653.1689" y1="-382.8208" x2="661.5439" y2="-406.8208" gradientTransform="matrix(1 0 0 -1 -303 -360)">
		<stop  offset="0" style="stop-color:#236074"/>
		<stop  offset="1" style="stop-color:#132F48"/>
	</linearGradient>
	<rect x="351.5" y="28.5" fill="url(#SVGID_28_)" width="2" height="2"/>
	
		<linearGradient id="SVGID_29_" gradientUnits="userSpaceOnUse" x1="651.9238" y1="-383.2544" x2="660.2988" y2="-407.2544" gradientTransform="matrix(1 0 0 -1 -303 -360)">
		<stop  offset="0" style="stop-color:#236074"/>
		<stop  offset="1" style="stop-color:#132F48"/>
	</linearGradient>
	<rect x="351.5" y="32.5" fill="url(#SVGID_29_)" width="2" height="2"/>
	
		<linearGradient id="SVGID_30_" gradientUnits="userSpaceOnUse" x1="650.6807" y1="-383.6929" x2="659.0524" y2="-407.6837" gradientTransform="matrix(1 0 0 -1 -303 -360)">
		<stop  offset="0" style="stop-color:#236074"/>
		<stop  offset="1" style="stop-color:#132F48"/>
	</linearGradient>
	<rect x="351.5" y="36.5" fill="url(#SVGID_30_)" width="2" height="2"/>
	
		<linearGradient id="SVGID_31_" gradientUnits="userSpaceOnUse" x1="662.084" y1="-379.71" x2="670.459" y2="-403.71" gradientTransform="matrix(1 0 0 -1 -303 -360)">
		<stop  offset="0" style="stop-color:#236074"/>
		<stop  offset="1" style="stop-color:#132F48"/>
	</linearGradient>
	<rect x="355.5" y="28.5" fill="url(#SVGID_31_)" width="14" height="2"/>
	
		<linearGradient id="SVGID_32_" gradientUnits="userSpaceOnUse" x1="660.8379" y1="-380.1421" x2="669.2129" y2="-404.1421" gradientTransform="matrix(1 0 0 -1 -303 -360)">
		<stop  offset="0" style="stop-color:#236074"/>
		<stop  offset="1" style="stop-color:#132F48"/>
	</linearGradient>
	<rect x="355.5" y="32.5" fill="url(#SVGID_32_)" width="14" height="2"/>
	
		<linearGradient id="SVGID_33_" gradientUnits="userSpaceOnUse" x1="659.5947" y1="-380.5771" x2="667.9697" y2="-404.5771" gradientTransform="matrix(1 0 0 -1 -303 -360)">
		<stop  offset="0" style="stop-color:#236074"/>
		<stop  offset="1" style="stop-color:#132F48"/>
	</linearGradient>
	<rect x="355.5" y="36.5" fill="url(#SVGID_33_)" width="14" height="2"/>
</g>
<g>
	
		<linearGradient id="SVGID_34_" gradientUnits="userSpaceOnUse" x1="1259.4824" y1="1496.293" x2="1263.8583" y2="1518.4214" gradientTransform="matrix(1 0 0 1 -1029 -1473)">
		<stop  offset="0" style="stop-color:#236074"/>
		<stop  offset="1" style="stop-color:#132F48"/>
	</linearGradient>
	<rect x="230.5" y="27.5" fill="url(#SVGID_34_)" width="4" height="12"/>
	
		<linearGradient id="SVGID_35_" gradientUnits="userSpaceOnUse" x1="1267.1807" y1="1494.7705" x2="1271.5559" y2="1516.8971" gradientTransform="matrix(1 0 0 1 -1029 -1473)">
		<stop  offset="0" style="stop-color:#236074"/>
		<stop  offset="1" style="stop-color:#132F48"/>
	</linearGradient>
	<polygon fill="url(#SVGID_35_)" points="242.25,27.5 241.5,27.5 235.5,27.5 235.5,39.5 241.5,39.5 242.25,39.5 245.5,39.5 
		245.5,27.5 	"/>
	
		<linearGradient id="SVGID_36_" gradientUnits="userSpaceOnUse" x1="1264.7764" y1="1495.25" x2="1269.1503" y2="1517.3705" gradientTransform="matrix(1 0 0 1 -1029 -1473)">
		<stop  offset="0" style="stop-color:#236074"/>
		<stop  offset="1" style="stop-color:#132F48"/>
	</linearGradient>
	<path fill="url(#SVGID_36_)" d="M228.5,25.5v16h19v-16H228.5z M246.5,40.5h-17v-14h17V40.5z"/>
</g>
<g id="Warning">
	<polygon id="Triangle_1_" fill="#FEF4A2" stroke="#A92A11" stroke-linejoin="round" points="380,26.5 383.75,33.501 387.5,40.5 
		380,40.5 372.5,40.5 376.25,33.501 	"/>
	<g id="Exclamation">
		<rect id="rect3343" x="379" y="31.5" opacity="0.8" enable-background="new    " width="2" height="4.5"/>
		<rect id="rect3345" x="379" y="37" opacity="0.8" enable-background="new    " width="2" height="2"/>
	</g>
</g>
</svg>
